<svg width="10" height="10" viewBox="0 0 10 10" fill="none" xmlns="http://www.w3.org/2000/svg">
<path d="M1.84439 8.50031L1.14252 0.625H8.85752L8.1547 8.49906L4.99533 9.375L1.84439 8.50031Z" fill="#1572B6"/>
<path d="M5 8.70562L7.55312 7.99781L8.15375 1.26906H5V8.70562Z" fill="#33A9DC"/>
<path d="M5 4.12219H6.27813L6.36625 3.13313H5V2.16719H7.42188L7.39875 2.42625L7.16156 5.08813H5V4.12219Z" fill="white"/>
<path d="M5.00595 6.63063L5.00157 6.63188L3.92595 6.34125L3.8572 5.57094H2.88751L3.02282 7.0875L5.00126 7.63688L5.00595 7.63563V6.63063Z" fill="#EBEBEB"/>
<path d="M6.19594 5.04718L6.07969 6.34062L5.0025 6.63124V7.63624L6.9825 7.08749L6.99719 6.92437L7.165 5.04718H6.19594Z" fill="white"/>
<path d="M5.00343 2.16719V3.13313H2.6703L2.65093 2.91594L2.60687 2.42625L2.58374 2.16719H5.00343ZM4.99999 4.12219V5.08813H3.9378L3.91843 4.87094L3.87468 4.38125L3.85155 4.12219H4.99999Z" fill="#EBEBEB"/>
</svg>
