<svg width="10" height="10" viewBox="0 0 10 10" fill="none" xmlns="http://www.w3.org/2000/svg">
<path d="M2.68899 4.88492C2.78919 4.71009 2.72779 4.48869 2.55187 4.39043C2.37595 4.29216 2.15212 4.35422 2.05192 4.52906L0.875954 6.58112C0.775763 6.75596 0.837154 6.97735 1.01308 7.07562C1.189 7.17389 1.41283 7.11182 1.51302 6.93699L2.68899 4.88492Z" fill="#C5F74E"/>
<path d="M5.22372 3.31131C5.32391 3.13648 5.26252 2.91509 5.0866 2.81682C4.91068 2.71855 4.68685 2.78062 4.58665 2.95545L3.41068 5.00752C3.31049 5.18235 3.37188 5.40374 3.54781 5.50201C3.72373 5.60028 3.94756 5.53821 4.04775 5.36338L5.22372 3.31131Z" fill="#C5F74E"/>
<path d="M9.12411 3.31131C9.22431 3.13648 9.16291 2.91509 8.98699 2.81682C8.81107 2.71855 8.58724 2.78062 8.48704 2.95545L7.31107 5.00752C7.21088 5.18235 7.27227 5.40374 7.4482 5.50201C7.62412 5.60028 7.84795 5.53821 7.94814 5.36338L9.12411 3.31131Z" fill="#C5F74E"/>
<path d="M6.58841 4.88492C6.6886 4.71009 6.62721 4.48869 6.45129 4.39043C6.27536 4.29216 6.05153 4.35422 5.95134 4.52906L4.77537 6.58112C4.67518 6.75596 4.73657 6.97735 4.91249 7.07562C5.08841 7.17389 5.31225 7.11182 5.41244 6.93699L6.58841 4.88492Z" fill="#C5F74E"/>
</svg>
