<svg width="10" height="10" viewBox="0 0 10 10" fill="none" xmlns="http://www.w3.org/2000/svg">
<path d="M5.34375 5C5.34375 4.19437 5.98062 3.54187 6.76562 3.54187C7.55062 3.54187 8.1875 4.19375 8.1875 5C8.1875 5.80562 7.55125 6.45812 6.76562 6.45812C5.98125 6.45812 5.34375 5.80625 5.34375 5Z" fill="#1ABCFE"/>
<path d="M2.5 7.91688C2.5 7.11125 3.13688 6.45813 3.92188 6.45813H5.34375V7.91688C5.34375 8.72188 4.70688 9.375 3.92188 9.375C3.13688 9.375 2.5 8.72188 2.5 7.91688Z" fill="#0ACF83"/>
<path d="M5.34375 0.625V3.54187H6.76562C7.55125 3.54187 8.1875 2.88875 8.1875 2.08312C8.1875 1.27812 7.55125 0.625 6.76562 0.625H5.34375Z" fill="#FF7262"/>
<path d="M2.5 2.08312C2.5 2.88875 3.13688 3.54187 3.92188 3.54187H5.34375V0.625H3.92188C3.13688 0.625 2.5 1.27812 2.5 2.08312Z" fill="#F24E1E"/>
<path d="M2.5 5C2.5 5.80562 3.13688 6.45812 3.92188 6.45812H5.34375V3.54187H3.92188C3.13688 3.54187 2.5 4.19375 2.5 5Z" fill="#A259FF"/>
</svg>
