<svg width="10" height="10" viewBox="0 0 10 10" fill="none" xmlns="http://www.w3.org/2000/svg">
<g clip-path="url(#clip0_29_405)">
<path d="M4.99999 0.936127C4.01061 0.936168 3.05352 1.28826 2.29998 1.9294C1.54644 2.57054 1.04562 3.45889 0.88713 4.43549C0.728643 5.4121 0.922832 6.41324 1.43495 7.25977C1.94707 8.10631 2.74369 8.74299 3.68229 9.05591C3.89062 9.09238 3.96875 8.96738 3.96875 8.858C3.96875 8.75904 3.96354 8.43091 3.96354 8.08196C2.91666 8.27466 2.64582 7.82676 2.56249 7.59239C2.47002 7.36444 2.32344 7.16244 2.13541 7.00383C1.98957 6.92571 1.78124 6.733 2.1302 6.7278C2.26344 6.74226 2.39124 6.78862 2.50275 6.86297C2.61427 6.93731 2.70623 7.03744 2.77082 7.15487C2.82781 7.25725 2.90444 7.34737 2.99632 7.42008C3.0882 7.49279 3.19352 7.54665 3.30625 7.57859C3.41899 7.61052 3.53691 7.61989 3.65327 7.60617C3.76964 7.59245 3.88215 7.5559 3.98436 7.49862C4.0024 7.2868 4.0968 7.08875 4.24999 6.94135C3.32291 6.83718 2.35416 6.47779 2.35416 4.88406C2.3483 4.46995 2.50111 4.0693 2.78124 3.76426C2.65386 3.40436 2.66876 3.00938 2.82291 2.6601C2.82291 2.6601 3.17185 2.55072 3.96874 3.08718C4.65053 2.89967 5.37029 2.89967 6.05207 3.08718C6.84894 2.54551 7.19791 2.6601 7.19791 2.6601C7.35207 3.00938 7.36698 3.40436 7.23957 3.76426C7.52055 4.06877 7.67349 4.46978 7.66666 4.88406C7.66666 6.483 6.69269 6.83718 5.76562 6.94135C5.86505 7.04213 5.94164 7.16314 5.99017 7.29614C6.0387 7.42915 6.05803 7.57104 6.04687 7.71218C6.04687 8.26948 6.04165 8.71738 6.04165 8.85801C6.04165 8.96739 6.11978 9.0976 6.32811 9.05593C7.26506 8.74046 8.05939 8.10228 8.56933 7.25531C9.07927 6.40835 9.27161 5.40772 9.11202 4.43206C8.95244 3.4564 8.45131 2.5692 7.6981 1.92884C6.94489 1.28848 5.98862 0.936641 4.99999 0.936127Z" fill="white"/>
</g>
<defs>
<clipPath id="clip0_29_405">
<rect width="10" height="10" fill="white"/>
</clipPath>
</defs>
</svg>
