<svg width="10" height="10" viewBox="0 0 10 10" fill="none" xmlns="http://www.w3.org/2000/svg">
<path d="M1.8444 8.50031L1.14221 0.625H8.85784L8.15471 8.49906L4.99534 9.375L1.8444 8.50031Z" fill="#E44F26"/>
<path d="M5 8.70562L7.55312 7.99781L8.15375 1.26906H5V8.70562Z" fill="#F1662A"/>
<path d="M5 4.18968H3.72187L3.63375 3.20062H5V2.23468H2.57812L2.60125 2.49406L2.83844 5.15562H5V4.18968ZM5 6.69812L4.99563 6.69937L3.92 6.40906L3.85125 5.63874H2.88156L3.01688 7.15499L4.99563 7.70437L5 7.70312V6.69812Z" fill="#EBEBEB"/>
<path d="M4.99658 4.18968V5.15562H6.18596L6.07408 6.40843L4.99658 6.69906V7.70405L6.97689 7.15499L6.99127 6.99187L7.21814 4.44906L7.24189 4.18968H4.99658ZM4.99658 2.23468V3.20062H7.32971L7.34908 2.98374L7.39314 2.49406L7.41627 2.23468H4.99658Z" fill="white"/>
</svg>
