<svg width="10" height="10" viewBox="0 0 10 10" fill="none" xmlns="http://www.w3.org/2000/svg">
<path d="M3.01034 2.49001H4.18253V5.77564C4.18253 7.25626 3.47284 7.77314 2.33909 7.77314C2.06159 7.77314 1.70659 7.72689 1.47534 7.6497L1.60659 6.70095C1.80099 6.76329 2.00401 6.7945 2.20815 6.79345C2.7019 6.79345 3.01034 6.5697 3.01034 5.76783V2.49001ZM5.20034 6.48533C5.50878 6.6472 6.00253 6.80939 6.50378 6.80939C7.04378 6.80939 7.32909 6.58564 7.32909 6.23876C7.32909 5.92251 7.08222 5.7297 6.45753 5.51376C5.59378 5.20533 5.02315 4.7272 5.02315 3.96345C5.02315 3.07658 5.77128 2.40564 6.98972 2.40564C7.58347 2.40564 8.00784 2.52126 8.31628 2.66783L8.05409 3.60876C7.71791 3.44472 7.34848 3.36024 6.9744 3.36189C6.46534 3.36189 6.21847 3.60095 6.21847 3.86314C6.21847 4.1947 6.50378 4.34126 7.18253 4.60345C8.10034 4.94283 8.5244 5.42095 8.5244 6.16126C8.5244 7.03283 7.86128 7.77314 6.4344 7.77314C5.84065 7.77314 5.2544 7.61126 4.96128 7.44908L5.20034 6.48533Z" fill="#F7DF1C"/>
</svg>
