<svg width="10" height="10" viewBox="0 0 10 10" fill="none" xmlns="http://www.w3.org/2000/svg">
<g clip-path="url(#clip0_25_32)">
<path fill-rule="evenodd" clip-rule="evenodd" d="M0 1.72429C0 0.771429 0.775714 0 1.7325 0H8.31679C9.27357 0 10.0489 0.771786 10.0489 1.72429V7.29643C10.0489 8.28143 8.79643 8.70893 8.18893 7.93143L6.28964 5.49964V8.44821C6.28964 9.30536 5.59143 10 4.73 10H1.7325C0.775714 10 0 9.22822 0 8.27571V1.72429ZM1.7325 1.37929C1.64087 1.37928 1.55297 1.41559 1.48804 1.48025C1.42311 1.54491 1.38645 1.63266 1.38607 1.72429V8.27571C1.38607 8.46643 1.54143 8.62072 1.7325 8.62072H4.78214C4.87786 8.62072 4.90357 8.54357 4.90357 8.44821V4.49464C4.90357 3.50893 6.15607 3.08179 6.76357 3.85929L8.66321 6.29107V1.72429C8.66321 1.53357 8.68107 1.37929 8.49 1.37929H1.7325Z" fill="#12FFF7"/>
<path fill-rule="evenodd" clip-rule="evenodd" d="M0 1.72429C0 0.771429 0.775714 0 1.7325 0H8.31679C9.27357 0 10.0489 0.771786 10.0489 1.72429V7.29643C10.0489 8.28143 8.79643 8.70893 8.18893 7.93143L6.28964 5.49964V8.44821C6.28964 9.30536 5.59143 10 4.73 10H1.7325C0.775714 10 0 9.22822 0 8.27571V1.72429ZM1.7325 1.37929C1.64087 1.37928 1.55297 1.41559 1.48804 1.48025C1.42311 1.54491 1.38645 1.63266 1.38607 1.72429V8.27571C1.38607 8.46643 1.54143 8.62072 1.7325 8.62072H4.78214C4.87786 8.62072 4.90357 8.54357 4.90357 8.44821V4.49464C4.90357 3.50893 6.15607 3.08179 6.76357 3.85929L8.66321 6.29107V1.72429C8.66321 1.53357 8.68107 1.37929 8.49 1.37929H1.7325Z" fill="url(#paint0_linear_25_32)"/>
<path fill-rule="evenodd" clip-rule="evenodd" d="M0 1.72429C0 0.771429 0.775714 0 1.7325 0H8.31679C9.27357 0 10.0489 0.771786 10.0489 1.72429V7.29643C10.0489 8.28143 8.79643 8.70893 8.18893 7.93143L6.28964 5.49964V8.44821C6.28964 9.30536 5.59143 10 4.73 10H1.7325C0.775714 10 0 9.22822 0 8.27571V1.72429ZM1.7325 1.37929C1.64087 1.37928 1.55297 1.41559 1.48804 1.48025C1.42311 1.54491 1.38645 1.63266 1.38607 1.72429V8.27571C1.38607 8.46643 1.54143 8.62072 1.7325 8.62072H4.78214C4.87786 8.62072 4.90357 8.54357 4.90357 8.44821V4.49464C4.90357 3.50893 6.15607 3.08179 6.76357 3.85929L8.66321 6.29107V1.72429C8.66321 1.53357 8.68107 1.37929 8.49 1.37929H1.7325Z" fill="url(#paint1_linear_25_32)"/>
<path d="M8.31677 0C9.27355 0 10.0489 0.771786 10.0489 1.72429V7.29643C10.0489 8.28143 8.79641 8.70893 8.18891 7.93143L6.28927 5.49964V8.44821C6.28927 9.30536 5.59141 10 4.72998 10C4.75268 10 4.77517 9.99562 4.79616 9.98698C4.81715 9.97834 4.83623 9.96564 4.85231 9.94962C4.8684 9.93361 4.88117 9.91458 4.8899 9.89362C4.89863 9.87267 4.90315 9.8502 4.90319 9.8275V4.49429C4.90319 3.50929 6.15605 3.08179 6.76391 3.85964L8.66319 6.29107V0.344643C8.66272 0.253074 8.62602 0.165417 8.5611 0.100834C8.49618 0.0362522 8.40834 -1.2165e-06 8.31677 0Z" fill="#B9FFB3"/>
</g>
<defs>
<linearGradient id="paint0_linear_25_32" x1="10.0493" y1="10" x2="1.26179" y2="-0.0428559" gradientUnits="userSpaceOnUse">
<stop stop-color="#B9FFB3"/>
<stop offset="1" stop-color="#B9FFB3" stop-opacity="0"/>
</linearGradient>
<linearGradient id="paint1_linear_25_32" x1="10.0493" y1="10" x2="4.08821" y2="7.67" gradientUnits="userSpaceOnUse">
<stop stop-color="#1A1A1A" stop-opacity="0.9"/>
<stop offset="1" stop-color="#1A1A1A" stop-opacity="0"/>
</linearGradient>
<clipPath id="clip0_25_32">
<rect width="10" height="10" fill="white"/>
</clipPath>
</defs>
</svg>
