<svg width="10" height="10" viewBox="0 0 10 10" fill="none" xmlns="http://www.w3.org/2000/svg">
<g clip-path="url(#clip0_29_463)">
<path d="M6.96625 3.66156H6.96312C6.96105 3.66115 6.95918 3.66005 6.95781 3.65844C6.95521 3.65561 6.95329 3.65223 6.95221 3.64854C6.95112 3.64486 6.9509 3.64097 6.95156 3.63719L7.12812 2.55875L7.95656 3.38625L7.09375 3.75L7.08625 3.75156H7.08437C7.08437 3.75156 7.08219 3.75156 7.08 3.74812C7.0475 3.71277 7.00898 3.68347 6.96625 3.66156ZM8.1675 3.59594L9.05312 4.48062C9.23719 4.66437 9.32906 4.75625 9.36281 4.8625C9.36811 4.87799 9.37219 4.89387 9.375 4.91L7.25875 4.015H7.25531C7.24687 4.01156 7.23688 4.0075 7.23688 3.99875C7.23688 3.99 7.24687 3.98594 7.25531 3.9825H7.25781L8.1675 3.59594ZM9.33875 5.19406C9.25821 5.31464 9.16218 5.42412 9.05312 5.51969L8.055 6.51656L6.76375 6.24781H6.75688C6.74563 6.24594 6.73312 6.24406 6.73312 6.23344C6.72812 6.18024 6.71225 6.12864 6.6865 6.08182C6.66075 6.03501 6.62568 5.99397 6.58344 5.96125C6.57812 5.95594 6.57969 5.94781 6.58094 5.94V5.93687L6.82406 4.4475V4.4425C6.82406 4.43125 6.8275 4.41781 6.83813 4.41781C6.89019 4.41142 6.94044 4.3947 6.98595 4.36862C7.03146 4.34254 7.0713 4.30763 7.10312 4.26594C7.1049 4.26357 7.10701 4.26146 7.10938 4.25969C7.1173 4.25762 7.12571 4.25874 7.13281 4.26281L9.33875 5.19406ZM7.82531 6.74594L6.18375 8.38594L6.465 6.66062V6.65187C6.46719 6.64625 6.47312 6.64406 6.47906 6.64156H6.48188C6.54332 6.61531 6.5977 6.57495 6.64062 6.52375C6.64569 6.51684 6.65297 6.51188 6.66125 6.50969H6.66781L7.82531 6.74594ZM5.83625 8.73281L5.65125 8.91781L3.60563 5.96437L3.60312 5.96125C3.60124 5.95949 3.59975 5.95736 3.59872 5.95499C3.5977 5.95263 3.59718 5.95008 3.59719 5.9475C3.59824 5.94389 3.59993 5.9405 3.60219 5.9375L3.60438 5.93469C3.61042 5.92573 3.61625 5.91635 3.62188 5.90656L3.62656 5.89875C3.62912 5.89321 3.63325 5.88853 3.63844 5.88531C3.64386 5.88382 3.64958 5.88382 3.655 5.88531L5.92156 6.35219C5.92791 6.35326 5.93391 6.35584 5.93906 6.35969C5.94142 6.36243 5.94294 6.36579 5.94344 6.36937V6.37375C5.9597 6.43267 5.98926 6.48709 6.02984 6.53281C6.07041 6.57853 6.12093 6.61434 6.1775 6.6375C6.18375 6.64062 6.18094 6.64781 6.1775 6.65531L6.17406 6.66562C6.14687 6.83844 5.90188 8.33031 5.83625 8.73281ZM5.44969 9.11875C5.36638 9.21956 5.26108 9.29995 5.14188 9.35375C5.0522 9.38216 4.95593 9.38216 4.86625 9.35375C4.75969 9.32 4.66781 9.22875 4.48375 9.04437L2.42938 6.99219L2.96594 6.16062C2.96812 6.15644 2.97122 6.15281 2.975 6.15C2.97828 6.14849 2.98185 6.1477 2.98547 6.1477C2.98908 6.1477 2.99266 6.14849 2.99594 6.15C3.04863 6.16643 3.10356 6.17455 3.15875 6.17406C3.23127 6.17354 3.303 6.159 3.37 6.13125C3.37255 6.12957 3.37554 6.12867 3.37859 6.12867C3.38165 6.12867 3.38464 6.12957 3.38719 6.13125L3.39375 6.13875L5.44969 9.11875ZM2.23094 6.79437L1.76 6.32344L2.69094 5.92687H2.69844C2.70625 5.92687 2.71062 5.93469 2.715 5.94187L2.71812 5.94687C2.72708 5.96021 2.73594 5.9725 2.74469 5.98375L2.7475 5.9875C2.75 5.99125 2.7475 5.995 2.74563 5.99906L2.23094 6.79437ZM1.55156 6.11531L0.955312 5.51969C0.85375 5.41844 0.780313 5.345 0.729375 5.28156L2.54187 5.65656H2.54875C2.56 5.65844 2.5725 5.66031 2.5725 5.67094C2.5725 5.68156 2.55906 5.6875 2.5475 5.69219L2.54219 5.69437L1.55156 6.11531ZM0.625 4.97531C0.627206 4.9369 0.634133 4.89891 0.645625 4.86219C0.679375 4.75594 0.770625 4.66406 0.955312 4.48031L1.71875 3.71875C1.84375 3.90312 2.67531 5.10187 2.77219 5.24062L2.77531 5.24469C2.78156 5.25312 2.78844 5.26219 2.78156 5.26906C2.74672 5.30538 2.7164 5.34578 2.69125 5.38937C2.68896 5.39506 2.68505 5.39995 2.68 5.40344C2.67847 5.40408 2.67682 5.40441 2.67516 5.40441C2.67349 5.40441 2.67185 5.40408 2.67031 5.40344L0.625 4.97531ZM1.9225 3.51437L2.94844 2.48937C3.045 2.53156 3.39594 2.67969 3.70969 2.81219C3.9475 2.9125 4.16406 3.00406 4.23187 3.03312C4.23526 3.03398 4.23842 3.03553 4.24117 3.03769C4.24391 3.03984 4.24618 3.04254 4.24781 3.04562C4.24883 3.05015 4.24883 3.05485 4.24781 3.05937C4.24091 3.09173 4.23745 3.12473 4.2375 3.15781C4.23755 3.27696 4.28421 3.39136 4.3675 3.47656C4.37437 3.48312 4.3675 3.49312 4.36156 3.50187L4.35844 3.50656L3.31687 5.11844C3.3146 5.12291 3.31127 5.12677 3.30719 5.12969C3.30408 5.13102 3.30073 5.13171 3.29734 5.13171C3.29396 5.13171 3.29061 5.13102 3.2875 5.12969C3.24665 5.11912 3.20469 5.11345 3.1625 5.11281C3.12244 5.11378 3.08257 5.11859 3.04344 5.12719C3.04157 5.12823 3.03948 5.12877 3.03734 5.12877C3.03521 5.12877 3.03311 5.12823 3.03125 5.12719C3.02735 5.12378 3.02388 5.11989 3.02094 5.11562L1.9225 3.51437ZM3.15625 2.28125L4.48469 0.954374C4.66875 0.770624 4.76062 0.678749 4.86719 0.644999C4.95687 0.616584 5.05313 0.616584 5.14281 0.644999C5.24938 0.678749 5.34125 0.769999 5.52531 0.954374L5.81312 1.24187L4.86781 2.70469C4.86558 2.70901 4.86237 2.71276 4.85844 2.71562C4.8552 2.71709 4.85168 2.71785 4.84812 2.71785C4.84457 2.71785 4.84105 2.71709 4.83781 2.71562C4.79115 2.70234 4.74289 2.6955 4.69438 2.69531C4.58694 2.69614 4.48291 2.73312 4.39906 2.80031C4.39281 2.80625 4.38375 2.8025 4.37594 2.80031C4.2525 2.74562 3.29281 2.34031 3.15625 2.28125ZM6.01344 1.44219L6.88594 2.31375L6.67594 3.61375V3.61719C6.67574 3.62018 6.6751 3.62312 6.67406 3.62594C6.67188 3.63062 6.6675 3.63156 6.66281 3.6325H6.65781C6.61459 3.64597 6.57393 3.66656 6.5375 3.69344L6.53312 3.6975C6.53209 3.69909 6.53071 3.70042 6.52909 3.70139C6.52746 3.70237 6.52564 3.70296 6.52375 3.70312C6.52046 3.70312 6.51719 3.70259 6.51406 3.70156L5.185 3.1375H5.18219C5.17375 3.13406 5.16375 3.13 5.16375 3.12125C5.15621 3.04911 5.13307 2.97948 5.09594 2.91719L5.09313 2.9125C5.08656 2.90187 5.07969 2.89094 5.085 2.88125L6.01344 1.44219ZM5.11469 3.40625L6.36063 3.93344C6.36773 3.93563 6.37383 3.94028 6.37781 3.94656C6.3787 3.95079 6.3787 3.95515 6.37781 3.95937C6.37369 3.97912 6.3715 3.99921 6.37125 4.01937V4.05437C6.37125 4.06281 6.36219 4.06656 6.35406 4.07H6.35125C6.15406 4.15406 3.58 5.25031 3.57625 5.25031C3.57412 5.25053 3.57197 5.25032 3.56992 5.24967C3.56788 5.24903 3.56599 5.24797 3.56437 5.24656C3.5575 5.24 3.56438 5.23 3.57031 5.22125L3.57344 5.21656L4.5975 3.63312L4.59938 3.63031C4.60531 3.62062 4.61219 3.61 4.62312 3.61L4.63344 3.61156C4.65471 3.61523 4.67623 3.61732 4.69781 3.61781C4.77408 3.61819 4.84926 3.59969 4.91665 3.56398C4.98404 3.52827 5.04155 3.47644 5.08406 3.41312C5.08597 3.40966 5.08851 3.40658 5.09156 3.40406C5.09531 3.40253 5.09937 3.40193 5.10339 3.40231C5.10742 3.40269 5.1113 3.40404 5.11469 3.40625ZM3.6875 5.50344L6.49281 4.30844C6.49582 4.3088 6.4986 4.31024 6.50063 4.3125C6.51344 4.32499 6.52701 4.33667 6.54125 4.3475L6.5475 4.35156C6.55312 4.355 6.55906 4.35844 6.55937 4.36437V4.37L6.31875 5.84375V5.84969C6.31875 5.86125 6.31562 5.87437 6.30469 5.87437C6.24082 5.87874 6.17899 5.89861 6.12453 5.93226C6.07008 5.96591 6.02465 6.01233 5.99219 6.0675V6.06937C5.98966 6.07476 5.98565 6.07931 5.98063 6.0825C5.9754 6.08388 5.96991 6.08388 5.96469 6.0825L3.7275 5.62156C3.7275 5.62156 3.69 5.50375 3.6875 5.50344Z" fill="url(#paint0_linear_29_463)"/>
</g>
<defs>
<linearGradient id="paint0_linear_29_463" x1="5" y1="0.624999" x2="5" y2="9.375" gradientUnits="userSpaceOnUse">
<stop stop-color="#21C6B7"/>
<stop offset="1" stop-color="#4C9BBF"/>
</linearGradient>
<clipPath id="clip0_29_463">
<rect width="10" height="10" fill="white"/>
</clipPath>
</defs>
</svg>
