<svg width="10" height="10" viewBox="0 0 10 10" fill="none" xmlns="http://www.w3.org/2000/svg">
<g clip-path="url(#clip0_24_18)">
<path d="M3 3L3.27 2.80467C3.2287 2.74762 3.17039 2.70512 3.10344 2.68327C3.03649 2.66141 2.96433 2.66132 2.89733 2.68302C2.83032 2.70471 2.77191 2.74707 2.73047 2.80402C2.68903 2.86096 2.6667 2.92957 2.66667 3H3ZM5 9.33333C3.85073 9.33333 2.74853 8.87679 1.93587 8.06413C1.12321 7.25147 0.666667 6.14927 0.666667 5H0C0 6.32608 0.526784 7.59785 1.46447 8.53553C2.40215 9.47322 3.67392 10 5 10V9.33333ZM9.33333 5C9.33333 5.56906 9.22125 6.13255 9.00348 6.65829C8.78571 7.18404 8.46652 7.66174 8.06413 8.06413C7.66174 8.46652 7.18404 8.78571 6.65829 9.00348C6.13255 9.22125 5.56906 9.33333 5 9.33333V10C6.32608 10 7.59785 9.47322 8.53553 8.53553C9.47322 7.59785 10 6.32608 10 5H9.33333ZM5 0.666667C5.56906 0.666667 6.13255 0.778752 6.65829 0.996522C7.18404 1.21429 7.66174 1.53348 8.06413 1.93587C8.46652 2.33826 8.78571 2.81596 9.00348 3.34171C9.22125 3.86745 9.33333 4.43094 9.33333 5H10C10 3.67392 9.47322 2.40215 8.53553 1.46447C7.59785 0.526784 6.32608 0 5 0V0.666667ZM5 0C3.67392 0 2.40215 0.526784 1.46447 1.46447C0.526784 2.40215 0 3.67392 0 5H0.666667C0.666667 3.85073 1.12321 2.74853 1.93587 1.93587C2.74853 1.12321 3.85073 0.666667 5 0.666667V0ZM3.33333 8V3H2.66667V8H3.33333ZM2.73 3.19533L7.06333 9.19533L7.60333 8.80467L3.27 2.80467L2.73 3.19533ZM6.66667 2.66667V6.66667H7.33333V2.66667H6.66667Z" fill="white"/>
</g>
<defs>
<clipPath id="clip0_24_18">
<rect width="10" height="10" fill="white"/>
</clipPath>
</defs>
</svg>
