<svg width="10" height="10" viewBox="0 0 10 10" fill="none" xmlns="http://www.w3.org/2000/svg">
<g clip-path="url(#clip0_29_412)">
<path d="M9.33335 2.80867L5.00002 0.279999L0.666687 2.80867V7.19133L1.33735 7.58266L2.70869 7.028C2.89323 6.95327 3.05126 6.82516 3.16255 6.66007C3.27384 6.49498 3.33331 6.30043 3.33335 6.10133V2.66667H4.00002V6.10133C3.99997 6.43322 3.90084 6.75754 3.71531 7.03274C3.52979 7.30793 3.26633 7.52147 2.95869 7.646L2.06535 8.00733L5.00002 9.72L9.33335 7.192V2.80867ZM4.66669 4C4.66669 3.64638 4.80716 3.30724 5.05721 3.05719C5.30726 2.80714 5.6464 2.66667 6.00002 2.66667H6.77802C7.45269 2.66667 8.00002 3.21333 8.00002 3.88867V4H7.33335V3.88867C7.33335 3.81574 7.31899 3.74352 7.29108 3.67615C7.26317 3.60877 7.22227 3.54755 7.1707 3.49599C7.11913 3.44442 7.05791 3.40351 6.99054 3.3756C6.92316 3.3477 6.85095 3.33333 6.77802 3.33333H6.00002C5.82321 3.33333 5.65364 3.40357 5.52862 3.52859C5.40359 3.65362 5.33335 3.82319 5.33335 4C5.33335 4.17681 5.40359 4.34638 5.52862 4.4714C5.65364 4.59643 5.82321 4.66667 6.00002 4.66667H6.66669C7.02031 4.66667 7.35945 4.80714 7.6095 5.05719C7.85954 5.30724 8.00002 5.64638 8.00002 6C8.00002 6.35362 7.85954 6.69276 7.6095 6.94281C7.35945 7.19286 7.02031 7.33333 6.66669 7.33333H6.00002C5.6464 7.33333 5.30726 7.19286 5.05721 6.94281C4.80716 6.69276 4.66669 6.35362 4.66669 6H5.33335C5.33335 6.17681 5.40359 6.34638 5.52862 6.4714C5.65364 6.59643 5.82321 6.66667 6.00002 6.66667H6.66669C6.8435 6.66667 7.01307 6.59643 7.13809 6.4714C7.26312 6.34638 7.33335 6.17681 7.33335 6C7.33335 5.82319 7.26312 5.65362 7.13809 5.52859C7.01307 5.40357 6.8435 5.33333 6.66669 5.33333H6.00002C5.6464 5.33333 5.30726 5.19286 5.05721 4.94281C4.80716 4.69276 4.66669 4.35362 4.66669 4Z" fill="#549E44"/>
</g>
<defs>
<clipPath id="clip0_29_412">
<rect width="10" height="10" fill="white"/>
</clipPath>
</defs>
</svg>
