<svg width="10" height="10" viewBox="0 0 10 10" fill="none" xmlns="http://www.w3.org/2000/svg">
<g clip-path="url(#clip0_26_58)">
<path d="M9.81091 5.98811C9.75277 5.81201 9.60046 5.68936 9.40349 5.65993C9.31061 5.64606 9.20425 5.65197 9.07838 5.67792C8.85898 5.72319 8.69622 5.74042 8.57743 5.74375C9.0258 4.98675 9.39039 4.12349 9.60027 3.31087C9.93967 1.9969 9.7583 1.3983 9.54637 1.12754C8.9855 0.410875 8.1672 0.0258747 7.18001 0.0140944C6.65338 0.00765503 6.19107 0.111632 5.94989 0.186405C5.72535 0.146784 5.48391 0.124663 5.23057 0.120572C4.75569 0.112996 4.3361 0.216519 3.97758 0.429284C3.7791 0.362163 3.46054 0.267541 3.09266 0.207163C2.22743 0.0651171 1.53008 0.175799 1.02001 0.53614C0.402355 0.972428 0.116029 1.73046 0.168983 2.78917C0.185802 3.12531 0.373832 4.14803 0.669892 5.11796C0.840044 5.67546 1.02148 6.13841 1.20917 6.49409C1.47535 6.99845 1.76016 7.29546 2.07989 7.40212C2.2591 7.46182 2.5847 7.50364 2.92717 7.21841C2.97057 7.27099 3.02849 7.32322 3.10535 7.37175C3.20296 7.4333 3.32232 7.4836 3.44152 7.51341C3.8711 7.6208 4.27349 7.59394 4.61679 7.44341C4.61891 7.50447 4.62054 7.56281 4.6219 7.61319C4.62417 7.69489 4.62645 7.775 4.62944 7.84993C4.64978 8.35652 4.68425 8.75042 4.78637 9.02603C4.79198 9.04118 4.79951 9.06428 4.80747 9.08879C4.85842 9.24478 4.9436 9.50591 5.16035 9.71042C5.38478 9.92228 5.65626 9.98724 5.90489 9.98724C6.02959 9.98724 6.14857 9.97087 6.25292 9.94853C6.62489 9.86879 7.04735 9.74735 7.35296 9.3122C7.6419 8.90084 7.78235 8.28125 7.80777 7.305C7.81105 7.27738 7.81414 7.25101 7.81701 7.22591L7.82307 7.17432L7.89114 7.18031L7.90868 7.18148C8.28754 7.19875 8.7508 7.11841 9.03531 6.98625C9.26012 6.88194 9.98054 6.50159 9.81091 5.98811Z" fill="black"/>
<path d="M9.16313 6.08796C8.03662 6.32034 7.95916 5.93894 7.95916 5.93894C9.14855 4.17405 9.64578 1.93379 9.21673 1.38549C8.04613 -0.11015 6.0198 0.597199 5.98597 0.615532L5.9751 0.617502C5.75253 0.57129 5.50347 0.54379 5.22351 0.539206C4.71381 0.530873 4.32715 0.672843 4.03374 0.895343C4.03374 0.895343 0.418966 -0.593824 0.58711 2.76822C0.622868 3.48345 1.61226 8.18008 2.79234 6.76148C3.22366 6.24273 3.64044 5.80413 3.64044 5.80413C3.84741 5.94163 4.09522 6.01178 4.35499 5.98659L4.37518 5.96947C4.36889 6.03387 4.37177 6.09686 4.38325 6.17144C4.07923 6.5111 4.16859 6.57072 3.56086 6.69584C2.9459 6.82258 3.30715 7.04818 3.54302 7.1072C3.82897 7.17868 4.49048 7.27996 4.93745 6.65424L4.91965 6.72565C5.03874 6.82106 5.12238 7.34621 5.10836 7.82231C5.09435 8.29837 5.08499 8.62523 5.17881 8.88053C5.27272 9.13584 5.36624 9.71027 6.16518 9.53909C6.83272 9.39602 7.17866 9.02531 7.22681 8.4069C7.26094 7.96728 7.33825 8.03228 7.3431 7.63921L7.4051 7.45315C7.47658 6.8572 7.41647 6.66493 7.82772 6.75436L7.92772 6.76315C8.23037 6.7769 8.62658 6.71443 8.85912 6.60637C9.3598 6.37402 9.65677 5.98602 9.16306 6.08796H9.16313Z" fill="#336791"/>
<path d="M4.2453 3.08807C4.14378 3.07394 4.05185 3.08701 4.00533 3.12224C3.9792 3.14205 3.97109 3.16501 3.96889 3.1808C3.96306 3.22266 3.99238 3.26894 4.01041 3.29281C4.06139 3.36038 4.13586 3.40682 4.20958 3.41705C4.22026 3.41854 4.23089 3.41927 4.24147 3.41925C4.36439 3.41925 4.47617 3.32353 4.48602 3.25288C4.49833 3.1644 4.36988 3.10538 4.2453 3.08807ZM7.60833 3.09088C7.59863 3.02152 7.47522 3.00175 7.3581 3.01804C7.24113 3.03432 7.12772 3.08713 7.13719 3.15663C7.14477 3.21069 7.24238 3.30296 7.35791 3.30296C7.36768 3.30296 7.37753 3.30228 7.38746 3.30091C7.46458 3.29023 7.52117 3.24126 7.54806 3.21304C7.58897 3.17001 7.61268 3.12205 7.60833 3.09088Z" fill="white"/>
<path d="M9.53796 6.06155C9.495 5.93166 9.35675 5.88988 9.12705 5.93731C8.44504 6.07806 8.2008 5.98056 8.12061 5.92151C8.65072 5.11393 9.08682 4.13772 9.32209 3.22693C9.43353 2.79549 9.49508 2.39481 9.50012 2.06821C9.50569 1.70977 9.44463 1.44636 9.31872 1.28545C8.81107 0.636775 8.06599 0.288821 7.1641 0.279275C6.54406 0.272306 6.02019 0.43098 5.91864 0.475601C5.70478 0.422419 5.47163 0.389768 5.21781 0.385601C4.75235 0.378063 4.35 0.489503 4.0169 0.716662C3.8722 0.662798 3.49826 0.534427 3.04095 0.460753C2.25035 0.33348 1.62209 0.429919 1.17375 0.747533C0.638793 1.12655 0.391823 1.80405 0.439664 2.76117C0.455763 3.08318 0.639247 4.07378 0.928793 5.02246C1.30993 6.27109 1.72425 6.97795 2.16016 7.12337C2.21118 7.14037 2.27 7.15227 2.33489 7.15227C2.49391 7.15227 2.68887 7.0806 2.89171 6.83674C3.13912 6.53994 3.39505 6.25035 3.65917 5.96833C3.83054 6.0603 4.01879 6.11166 4.21133 6.11681C4.21173 6.12186 4.21218 6.12689 4.21266 6.13189C4.17952 6.17141 4.14706 6.21151 4.11531 6.25215C3.9819 6.42151 3.95413 6.45678 3.5247 6.54518C3.40254 6.57041 3.07811 6.63727 3.07334 6.86469C3.06819 7.11318 3.45686 7.21753 3.50114 7.22859C3.65546 7.26723 3.80413 7.28628 3.94591 7.28628C4.29072 7.28628 4.59417 7.17295 4.83667 6.95367C4.82921 7.8395 4.86614 8.71238 4.9725 8.97833C5.05963 9.19606 5.27243 9.72814 5.94463 9.7281C6.04326 9.7281 6.15182 9.71662 6.27126 9.69102C6.97281 9.54064 7.27747 9.23056 7.39531 8.54696C7.45838 8.18162 7.5666 7.30924 7.6175 6.84128C7.72493 6.87481 7.86322 6.89015 8.01273 6.89011C8.32455 6.89011 8.68436 6.82386 8.91 6.71912C9.16349 6.6014 9.62091 6.31253 9.53796 6.06155ZM7.86728 2.89943C7.86497 3.03757 7.84595 3.16299 7.8258 3.2939C7.8041 3.43469 7.78167 3.58026 7.77603 3.75696C7.77046 3.92893 7.79194 4.10772 7.81269 4.28064C7.85466 4.62988 7.89773 4.98943 7.73103 5.3442C7.70338 5.29511 7.67871 5.2444 7.65716 5.19234C7.63644 5.14212 7.59144 5.06143 7.52913 4.94977C7.28675 4.51507 6.71913 3.49712 7.0097 3.08174C7.09625 2.9581 7.31591 2.83098 7.86728 2.89943ZM7.19894 0.55901C8.00705 0.576851 8.64629 0.879162 9.09887 1.4575C9.44599 1.90109 9.06376 3.91954 7.9572 5.66087C7.94607 5.64672 7.93489 5.63261 7.92364 5.61856L7.90963 5.60106C8.19557 5.12882 8.13966 4.66159 8.08989 4.24734C8.06944 4.07734 8.05012 3.91678 8.05504 3.76594C8.06012 3.60609 8.08125 3.46897 8.10171 3.3364C8.12682 3.17303 8.15239 3.00397 8.14535 2.80469C8.15061 2.78378 8.15273 2.75909 8.14997 2.72977C8.13197 2.53867 7.91379 1.96674 7.4691 1.44909C7.22584 1.16594 6.8711 0.849086 6.38675 0.635374C6.59508 0.592192 6.87997 0.551927 7.19894 0.55901ZM2.67705 6.65825C2.45357 6.92696 2.29925 6.87545 2.24849 6.85856C1.91781 6.74825 1.5341 6.04931 1.1958 4.94098C0.903073 3.98196 0.732013 3.01761 0.718452 2.74719C0.675725 1.89196 0.883035 1.29594 1.33466 0.975639C2.06966 0.454427 3.27807 0.766397 3.76364 0.924616C3.75667 0.93151 3.7494 0.93795 3.7425 0.944957C2.94569 1.74965 2.96459 3.1245 2.96656 3.20856C2.96648 3.24098 2.96921 3.28689 2.97292 3.35003C2.98663 3.58128 3.01216 4.01166 2.94398 4.49905C2.88065 4.95196 3.02027 5.39526 3.32697 5.7153C3.35844 5.74809 3.39152 5.77929 3.4261 5.80878C3.28959 5.955 2.99288 6.27833 2.67705 6.65825ZM3.52853 5.52215C3.28133 5.2642 3.16906 4.90541 3.22046 4.53768C3.29243 4.02284 3.26588 3.57443 3.2516 3.33352C3.24959 3.29981 3.24781 3.27026 3.24679 3.24696C3.36319 3.14374 3.90262 2.85473 4.28732 2.94287C4.46285 2.98306 4.56982 3.10261 4.61428 3.30821C4.84444 4.37272 4.64474 4.8164 4.48429 5.17295C4.45122 5.2464 4.41997 5.31583 4.3933 5.38765L4.37262 5.44318C4.32027 5.58356 4.27156 5.71409 4.24137 5.83803C3.97857 5.83727 3.72292 5.725 3.52853 5.52212M3.56887 6.95772C3.49213 6.93856 3.42311 6.90526 3.38262 6.87765C3.41644 6.86174 3.47663 6.84007 3.58103 6.81856C4.08622 6.71458 4.16425 6.64117 4.33463 6.42484C4.37368 6.37522 4.41796 6.31901 4.47929 6.25053L4.47936 6.25045C4.57069 6.14818 4.61247 6.16553 4.68822 6.19697C4.74963 6.22234 4.80944 6.29931 4.83368 6.38401C4.84516 6.42401 4.85804 6.49992 4.81588 6.55901C4.45997 7.05734 3.94133 7.05094 3.56887 6.95772ZM6.21277 9.41803C5.59474 9.55045 5.37591 9.23511 5.23171 8.87462C5.13864 8.64189 5.09288 7.59242 5.12535 6.43344C5.12576 6.41803 5.12357 6.40314 5.11932 6.38912C5.11553 6.36145 5.10976 6.33408 5.10205 6.30723C5.05379 6.13859 4.93618 5.99753 4.79508 5.93905C4.73902 5.91583 4.63614 5.87321 4.5125 5.90484C4.53887 5.79621 4.58459 5.67352 4.63417 5.54068L4.65497 5.48481C4.67838 5.42181 4.70777 5.35655 4.73883 5.28746C4.90675 4.91443 5.13671 4.40348 4.88713 3.2492C4.79364 2.81685 4.48144 2.60571 4.00819 2.65477C3.72447 2.68412 3.46489 2.79859 3.33542 2.86424C3.30758 2.87833 3.28213 2.89196 3.25834 2.90522C3.29447 2.46962 3.43099 1.65553 3.94167 1.14045C4.26322 0.816207 4.69144 0.656056 5.21319 0.664692C6.24122 0.68151 6.90046 1.20909 7.2725 1.64875C7.59311 2.02757 7.76671 2.4092 7.83599 2.61503C7.31497 2.56204 6.96061 2.66488 6.78099 2.9217C6.39019 3.48034 6.99478 4.56458 7.28535 5.08568C7.33864 5.18117 7.38463 5.26371 7.3991 5.29878C7.49372 5.5281 7.61622 5.68121 7.70565 5.79295C7.73307 5.82719 7.75966 5.86041 7.77989 5.88943C7.62209 5.93492 7.33864 6.04003 7.36447 6.56545C7.34364 6.82909 7.1955 8.0634 7.12023 8.4995C7.02088 9.07564 6.80887 9.29018 6.21277 9.41803ZM8.79247 6.46594C8.6311 6.54083 8.36107 6.597 8.10455 6.60909C7.82122 6.62234 7.67697 6.57734 7.64303 6.54965C7.62713 6.22223 7.74898 6.18803 7.87796 6.15181C7.89822 6.14613 7.918 6.14056 7.93709 6.1339C7.94893 6.14357 7.96196 6.15311 7.97618 6.16253C8.20391 6.31284 8.61008 6.32905 9.18353 6.21068L9.18981 6.20943C9.11247 6.28174 8.98012 6.37878 8.79247 6.46594Z" fill="white"/>
</g>
<defs>
<clipPath id="clip0_26_58">
<rect width="10" height="10" fill="white"/>
</clipPath>
</defs>
</svg>
