<svg width="10" height="10" viewBox="0 0 10 10" fill="none" xmlns="http://www.w3.org/2000/svg">
<g clip-path="url(#clip0_29_442)">
<path d="M9.9591 5.63488C10.3091 2.89539 8.37437 0.39082 5.63988 0.0408984C2.90539 -0.309063 0.39082 1.62563 0.0408984 4.36012C-0.309063 7.09461 1.62563 9.60418 4.36012 9.9591C7.09961 10.3091 9.60418 8.37438 9.9591 5.63488Z" fill="#FF6C37"/>
<path d="M6.80463 3.21032L4.69502 5.31997L4.1001 4.72505C6.17475 2.65044 6.37971 2.8304 6.80463 3.21032Z" fill="white"/>
<path d="M4.69506 5.36991C4.68006 5.36991 4.67006 5.36491 4.66006 5.35491L4.06021 4.76003C4.05548 4.75551 4.05171 4.75009 4.04913 4.74407C4.04656 4.73806 4.04523 4.73159 4.04523 4.72505C4.04523 4.7185 4.04656 4.71203 4.04913 4.70602C4.05171 4.70001 4.05548 4.69458 4.06021 4.69007C6.16982 2.58042 6.38978 2.78038 6.8347 3.1803C6.8447 3.1903 6.8497 3.2003 6.8497 3.2153C6.8497 3.2303 6.8447 3.2403 6.8347 3.2503L4.72506 5.35491C4.72006 5.36491 4.70506 5.36991 4.69506 5.36991ZM4.17017 4.72503L4.69506 5.24995L6.72974 3.2153C6.35982 2.88538 6.10982 2.78538 4.17021 4.72506" fill="#FF6C37"/>
<path d="M5.29992 5.92486L4.72504 5.34993L6.83465 3.24033C7.39957 3.81025 6.55472 4.73505 5.29992 5.92486Z" fill="white"/>
<path d="M5.29994 5.97484C5.28494 5.97484 5.27494 5.96984 5.26498 5.95984L4.69005 5.38492C4.68005 5.37492 4.68005 5.36492 4.68005 5.34992C4.68005 5.33496 4.68505 5.32492 4.69505 5.31496L6.80466 3.20531C6.80918 3.20057 6.81461 3.1968 6.82062 3.19422C6.82664 3.19164 6.83312 3.19031 6.83966 3.19031C6.84621 3.19031 6.85269 3.19164 6.8587 3.19422C6.86472 3.1968 6.87015 3.20057 6.87466 3.20531C6.93849 3.26438 6.98892 3.33644 7.02255 3.41664C7.05618 3.49684 7.07223 3.58331 7.06962 3.67024C7.05962 4.22516 6.42978 4.93 5.33994 5.95984C5.32494 5.96984 5.30994 5.97484 5.29994 5.97484ZM4.79505 5.34992C5.11498 5.67488 5.24998 5.80484 5.29994 5.85484C6.13978 5.055 6.95462 4.23516 6.95966 3.67024C6.96466 3.54027 6.91466 3.41027 6.82966 3.31031L4.79505 5.34992Z" fill="#FF6C37"/>
<path d="M4.11017 4.74004L4.53509 5.16496C4.54509 5.17496 4.54509 5.18496 4.53509 5.19496C4.53009 5.19996 4.53009 5.19996 4.52509 5.19996L3.64525 5.38992C3.60025 5.39492 3.56025 5.36492 3.55025 5.31996C3.54525 5.29496 3.55525 5.26996 3.57025 5.25496L4.08017 4.74504C4.09017 4.73504 4.10517 4.73004 4.11017 4.74004Z" fill="white"/>
<path d="M3.6302 5.43991C3.5552 5.43991 3.50024 5.37991 3.50024 5.30495C3.50024 5.26995 3.51524 5.23495 3.54024 5.20995L4.05013 4.70002C4.08013 4.67502 4.12013 4.67502 4.15013 4.70002L4.57501 5.12495C4.60501 5.14995 4.60501 5.19495 4.57501 5.22495C4.56501 5.23495 4.55501 5.23995 4.54001 5.24495L3.66017 5.43491C3.65017 5.43491 3.6402 5.43991 3.6302 5.43991ZM4.09509 4.79502L3.6052 5.28495C3.5952 5.29495 3.59021 5.30995 3.60021 5.32495C3.60521 5.33995 3.6202 5.34491 3.6352 5.33995L4.46005 5.15995L4.09509 4.79502Z" fill="#FF6C37"/>
<path d="M7.91943 2.04053C7.59951 1.73057 7.08459 1.74057 6.77467 2.06553C6.4647 2.39046 6.4747 2.90038 6.79967 3.2103C6.92793 3.33423 7.0936 3.41222 7.27084 3.43212C7.44808 3.45202 7.62692 3.4127 7.77947 3.3203L7.20955 2.75038L7.91943 2.04053Z" fill="white"/>
<path d="M7.3596 3.48528C6.88468 3.48528 6.49976 3.10036 6.49976 2.62544C6.49976 2.15052 6.88468 1.76559 7.3596 1.76559C7.57952 1.76559 7.79452 1.85059 7.95452 2.00556C7.96448 2.01556 7.96948 2.02556 7.96948 2.04056C7.96948 2.05556 7.96448 2.06556 7.95448 2.07556L7.2796 2.75036L7.80952 3.28028C7.82952 3.30028 7.82952 3.33028 7.80952 3.35028L7.79952 3.36028C7.66952 3.44024 7.51456 3.48528 7.3596 3.48528ZM7.3596 1.87059C6.93968 1.87059 6.59972 2.21052 6.60472 2.63044C6.60472 3.05036 6.94468 3.39032 7.3646 3.38532C7.47956 3.38532 7.59456 3.36032 7.69952 3.30532L7.17464 2.7854C7.16464 2.7754 7.15964 2.7654 7.15964 2.7504C7.15964 2.73544 7.16464 2.7254 7.17464 2.71544L7.84452 2.04552C7.70952 1.93056 7.53956 1.87059 7.3596 1.87059Z" fill="#FF6C37"/>
<path d="M7.93444 2.05553L7.92444 2.04553L7.20959 2.75038L7.77448 3.3153C7.82948 3.2803 7.88444 3.2403 7.92944 3.1953C8.00518 3.12111 8.06544 3.03263 8.10673 2.93499C8.14802 2.83734 8.16952 2.73248 8.16999 2.62646C8.17045 2.52044 8.14987 2.41539 8.10944 2.31739C8.06901 2.21938 8.00952 2.13038 7.93444 2.05553Z" fill="white"/>
<path d="M7.77949 3.37027C7.76449 3.37027 7.75449 3.36531 7.74449 3.35531L7.17457 2.78539C7.16461 2.77539 7.15961 2.76539 7.15961 2.75039C7.15961 2.73543 7.16461 2.72539 7.17461 2.71543L7.88441 2.00555C7.88893 2.0008 7.89435 1.99703 7.90037 1.99445C7.90639 1.99187 7.91287 1.99054 7.91941 1.99054C7.92596 1.99054 7.93244 1.99187 7.93845 1.99445C7.94447 1.99703 7.9499 2.0008 7.95441 2.00555L7.96941 2.01555C8.30437 2.35047 8.30437 2.89039 7.97441 3.23031C7.92441 3.28031 7.86945 3.32531 7.80945 3.36031C7.79445 3.36531 7.78445 3.37031 7.77945 3.37031M7.27953 2.75043L7.78445 3.25535C7.82445 3.23035 7.86445 3.19535 7.89441 3.16539C8.17937 2.88043 8.19437 2.41551 7.91941 2.11555L7.27953 2.75043Z" fill="#FF6C37"/>
<path d="M6.88964 3.30032C6.83193 3.24271 6.75372 3.21036 6.67218 3.21036C6.59064 3.21036 6.51243 3.24271 6.45472 3.30032L4.57007 5.18497L4.88499 5.49993L6.87964 3.75024C7.00964 3.64024 7.0196 3.44528 6.90964 3.31532C6.89964 3.31032 6.89464 3.30532 6.88964 3.30032Z" fill="white"/>
<path d="M4.88 5.54993C4.865 5.54993 4.855 5.54493 4.845 5.53493L4.53008 5.21997C4.52534 5.21545 4.52156 5.21003 4.51899 5.20401C4.51641 5.19799 4.51508 5.19151 4.51508 5.18497C4.51508 5.17842 4.51641 5.17194 4.51899 5.16593C4.52156 5.15991 4.52534 5.15448 4.53008 5.14997L6.41473 3.26532C6.44782 3.23205 6.48716 3.20565 6.53048 3.18763C6.57381 3.16961 6.62027 3.16034 6.66719 3.16034C6.71411 3.16034 6.76057 3.16961 6.8039 3.18763C6.84723 3.20565 6.88656 3.23205 6.91965 3.26532C6.95292 3.29841 6.97933 3.33775 6.99734 3.38107C7.01536 3.4244 7.02463 3.47086 7.02463 3.51778C7.02463 3.5647 7.01536 3.61116 6.99734 3.65449C6.97933 3.69782 6.95292 3.73715 6.91965 3.77024L6.90465 3.78524L4.91 5.53493C4.905 5.54493 4.895 5.54993 4.88 5.54993ZM4.64004 5.18497L4.885 5.42993L6.84465 3.71024C6.95465 3.62024 6.96465 3.45528 6.87465 3.34532C6.78469 3.23532 6.61969 3.22532 6.50973 3.31532C6.50473 3.32032 6.49973 3.32532 6.48973 3.33032L4.64004 5.18497Z" fill="#FF6C37"/>
<path d="M3.12533 7.32957C3.10537 7.33957 3.09537 7.35957 3.10033 7.37957L3.18533 7.7395C3.20533 7.7895 3.17533 7.8495 3.12033 7.8645C3.08037 7.8795 3.03537 7.8645 3.01037 7.8345L2.46045 7.28957L4.25514 5.49496L4.87506 5.50496L5.29498 5.92489C5.19498 6.00985 4.5901 6.59477 3.12533 7.32961" fill="white"/>
<path d="M3.08535 7.91449C3.04535 7.91449 3.00535 7.89949 2.98035 7.86949L2.43543 7.32456C2.42547 7.31456 2.42047 7.30456 2.42047 7.2896C2.42047 7.2746 2.42547 7.2646 2.43547 7.2546L4.23012 5.45992C4.24012 5.44992 4.25512 5.44492 4.26512 5.44492L4.88504 5.45492C4.9 5.45492 4.91004 5.45992 4.92 5.46992L5.33992 5.88984C5.34992 5.89984 5.35492 5.91484 5.35492 5.92984C5.35492 5.94484 5.34992 5.95484 5.33492 5.96484L5.29992 5.9948C4.77004 6.45972 4.05016 6.92464 3.15531 7.36956L3.24032 7.72453C3.25532 7.78949 3.22531 7.85949 3.16531 7.89445C3.13531 7.90949 3.11031 7.91449 3.08535 7.91449ZM2.53543 7.2896L3.05035 7.79949C3.06535 7.82449 3.09535 7.83449 3.12031 7.81949C3.14531 7.80449 3.15531 7.77449 3.14031 7.74949L3.05535 7.38956C3.04535 7.34456 3.06535 7.30456 3.10535 7.2846C3.99016 6.83968 4.70504 6.37976 5.22996 5.92484L4.86004 5.55492L4.28512 5.54492L2.53543 7.2896Z" fill="#FF6C37"/>
<path d="M2.03553 7.71949L2.46545 7.28961L3.10537 7.92946L2.08553 7.85949C2.04053 7.85449 2.01053 7.81449 2.01557 7.76949C2.01557 7.74949 2.02057 7.72949 2.03553 7.71949Z" fill="white"/>
<path d="M3.10536 7.97445L2.08052 7.90449C2.00552 7.89949 1.95551 7.83449 1.96055 7.75949C1.96555 7.72949 1.97555 7.69953 2.00055 7.67953L2.43048 7.24961C2.43499 7.24487 2.44042 7.2411 2.44643 7.23853C2.45244 7.23595 2.45892 7.23462 2.46546 7.23462C2.472 7.23462 2.47847 7.23595 2.48448 7.23853C2.4905 7.2411 2.49592 7.24487 2.50044 7.24961L3.14032 7.88945C3.15532 7.90449 3.16032 7.92449 3.15032 7.94445C3.14032 7.96445 3.12533 7.97445 3.10536 7.97445ZM2.46544 7.35961L2.07052 7.75453C2.05552 7.76449 2.05552 7.78949 2.07052 7.79949C2.07552 7.80449 2.08051 7.80949 2.09051 7.80949L2.97536 7.86949L2.46544 7.35961ZM4.08016 5.72488C4.05016 5.72488 4.03016 5.69988 4.03016 5.67488C4.03016 5.65988 4.03516 5.64988 4.04516 5.63988L4.53012 5.15496C4.53464 5.15022 4.54007 5.14644 4.54608 5.14386C4.5521 5.14128 4.55858 5.13995 4.56512 5.13995C4.57167 5.13995 4.57815 5.14128 4.58416 5.14386C4.59018 5.14644 4.59561 5.15022 4.60012 5.15496L4.91505 5.46992C4.93005 5.48492 4.93505 5.49992 4.93005 5.51992C4.92505 5.53492 4.91005 5.54992 4.89005 5.55492L4.0902 5.72484L4.08016 5.72488ZM4.56509 5.25996L4.23512 5.58988L4.77505 5.47496L4.56509 5.25996Z" fill="#FF6C37"/>
<path d="M4.87506 5.50491L4.32514 5.62487C4.28514 5.63487 4.24514 5.60987 4.23514 5.56987C4.23014 5.54487 4.23514 5.51987 4.25514 5.49991L4.5601 5.19495L4.87506 5.50491Z" fill="white"/>
<path d="M4.31513 5.67488C4.29867 5.67503 4.28235 5.67191 4.26711 5.66568C4.25187 5.65945 4.23803 5.65025 4.22639 5.63861C4.21475 5.62697 4.20555 5.61313 4.19933 5.59789C4.1931 5.58266 4.18997 5.56633 4.19013 5.54988C4.19013 5.51491 4.20513 5.48491 4.22513 5.45991L4.53009 5.15495C4.5346 5.15021 4.54003 5.14644 4.54605 5.14386C4.55207 5.14128 4.55854 5.13995 4.56509 5.13995C4.57164 5.13995 4.57812 5.14128 4.58413 5.14386C4.59015 5.14644 4.59558 5.15021 4.60009 5.15495L4.91501 5.46991C4.93001 5.48491 4.93501 5.49991 4.93001 5.51991C4.92501 5.53491 4.91001 5.54991 4.89001 5.55491L4.34013 5.67488H4.31513ZM4.56509 5.25995L4.29513 5.52988C4.28513 5.53991 4.28513 5.54991 4.29013 5.55988C4.29513 5.56988 4.30513 5.57488 4.32013 5.57488L4.78005 5.47488L4.56509 5.25995ZM7.93951 2.53542C7.92947 2.50546 7.89447 2.49046 7.86451 2.50046C7.83451 2.51046 7.81951 2.54542 7.82951 2.57546C7.82951 2.58042 7.83451 2.58542 7.83451 2.59042C7.86451 2.65042 7.85451 2.72542 7.81451 2.78038C7.79451 2.80538 7.79951 2.84038 7.81951 2.86038C7.84451 2.88038 7.87947 2.87538 7.89947 2.85038C7.97447 2.75538 7.98947 2.63542 7.93947 2.53542" fill="#FF6C37"/>
</g>
<defs>
<clipPath id="clip0_29_442">
<rect width="10" height="10" fill="white"/>
</clipPath>
</defs>
</svg>
