<svg width="10" height="10" viewBox="0 0 10 10" fill="none" xmlns="http://www.w3.org/2000/svg">
<g clip-path="url(#clip0_30_469)">
<path d="M9.07459 7.59738L5.64514 0.314478C5.60253 0.22486 5.53648 0.14843 5.45399 0.0932786C5.3715 0.0381276 5.27563 0.0063077 5.17653 0.00118752C5.07724 -0.00546593 4.97803 0.0152304 4.88969 0.0610256C4.80135 0.106821 4.72725 0.175962 4.67546 0.260929L0.955881 6.28541C0.899342 6.37639 0.869899 6.48159 0.871002 6.58869C0.872104 6.6958 0.903707 6.80037 0.962107 6.89016L2.78062 9.70632C2.84942 9.81203 2.95055 9.89268 3.06893 9.93621C3.18731 9.97975 3.31659 9.98385 3.43749 9.9479L8.71488 8.38687C8.79434 8.36363 8.86789 8.32361 8.93055 8.26951C8.99322 8.2154 9.04353 8.14848 9.07811 8.07325C9.1122 7.99842 9.12956 7.91706 9.129 7.83483C9.12844 7.7526 9.10996 7.67148 9.07485 7.59712L9.07459 7.59738ZM8.30678 7.90974L3.82862 9.23393C3.69201 9.27458 3.56088 9.15616 3.5893 9.01828L5.18924 1.35751C5.21914 1.21419 5.41707 1.19148 5.47965 1.32412L8.4414 7.61358C8.45449 7.6416 8.46135 7.67213 8.4615 7.70306C8.46165 7.73399 8.45509 7.76459 8.44228 7.79274C8.42946 7.82089 8.41069 7.84593 8.38726 7.86612C8.36383 7.88631 8.33629 7.90118 8.30656 7.9097L8.30678 7.90974Z" fill="white"/>
</g>
<defs>
<clipPath id="clip0_30_469">
<rect width="10" height="10" fill="white"/>
</clipPath>
</defs>
</svg>
