<svg width="10" height="10" viewBox="0 0 10 10" fill="none" xmlns="http://www.w3.org/2000/svg">
<g clip-path="url(#clip0_28_372)">
<path d="M4.95768 0.00283813C2.42517 0.00283832 2.58332 1.10539 2.58332 1.10539L2.58614 2.24763H5.00285V2.59059H1.62623C1.62623 2.59059 0.00567627 2.40608 0.00567627 4.97143C0.00567609 7.53678 1.42013 7.4458 1.42013 7.4458H2.26429V6.25538C2.26429 6.25538 2.21879 4.83538 3.65616 4.83538H6.05311C6.05311 4.83538 7.3998 4.85723 7.3998 3.52875V1.33214C7.3998 1.33214 7.60427 0.00283813 4.95768 0.00283813ZM3.6251 0.770943C3.86555 0.770943 4.05988 0.966042 4.05988 1.20743C4.05988 1.44882 3.86555 1.64392 3.6251 1.64392C3.38465 1.64392 3.19032 1.44882 3.19032 1.20743C3.19032 0.966042 3.38465 0.770943 3.6251 0.770943Z" fill="url(#paint0_linear_28_372)"/>
<path d="M5.02959 9.96573C7.5621 9.96573 7.40395 8.86318 7.40395 8.86318L7.40113 7.72094H4.98441V7.37799H8.36104C8.36104 7.37799 9.98159 7.56249 9.98159 4.99714C9.98159 2.4318 8.56714 2.52277 8.56714 2.52277H7.72298V3.71319C7.72298 3.71319 7.76848 5.13319 6.33111 5.13319H3.93416C3.93416 5.13319 2.58746 5.11134 2.58746 6.43982V8.63643C2.58746 8.63643 2.383 9.96573 5.02959 9.96573ZM6.36217 9.19763C6.12172 9.19763 5.92738 9.00253 5.92738 8.76114C5.92738 8.51975 6.12172 8.32465 6.36217 8.32465C6.60261 8.32465 6.79695 8.51975 6.79695 8.76114C6.79695 9.00253 6.60261 9.19763 6.36217 9.19763Z" fill="url(#paint1_linear_28_372)"/>
</g>
<defs>
<linearGradient id="paint0_linear_28_372" x1="95.8763" y1="89.6164" x2="592.163" y2="579.032" gradientUnits="userSpaceOnUse">
<stop stop-color="#387EB8"/>
<stop offset="1" stop-color="#366994"/>
</linearGradient>
<linearGradient id="paint1_linear_28_372" x1="144.085" y1="155.701" x2="676.948" y2="657.464" gradientUnits="userSpaceOnUse">
<stop stop-color="#FFE052"/>
<stop offset="1" stop-color="#FFC331"/>
</linearGradient>
<clipPath id="clip0_28_372">
<rect width="10" height="10" fill="white"/>
</clipPath>
</defs>
</svg>
