<svg width="10" height="10" viewBox="0 0 10 10" fill="none" xmlns="http://www.w3.org/2000/svg">
<path d="M5 5.77313C5.43147 5.77313 5.78125 5.42335 5.78125 4.99188C5.78125 4.56041 5.43147 4.21063 5 4.21063C4.56853 4.21063 4.21875 4.56041 4.21875 4.99188C4.21875 5.42335 4.56853 5.77313 5 5.77313Z" fill="#00D8FF"/>
<path d="M5 6.78313C4.06098 6.80576 3.12433 6.67919 2.225 6.40813C1.80957 6.27644 1.4221 6.06899 1.08219 5.79626C0.952434 5.70313 0.844383 5.58301 0.765462 5.44416C0.686542 5.30531 0.638623 5.15101 0.625 4.99188C0.625 4.47532 1.1925 3.96907 2.14312 3.63782C3.06653 3.34454 4.03124 3.2023 5 3.21657C5.95584 3.20335 6.90764 3.34303 7.81938 3.63032C8.2194 3.75801 8.59371 3.95543 8.925 4.21344C9.05236 4.30241 9.15865 4.41822 9.2364 4.55271C9.31415 4.68721 9.36146 4.83712 9.375 4.99188C9.375 5.52876 8.74063 6.07282 7.71875 6.41094C6.83685 6.67325 5.91995 6.79877 5 6.78313ZM5 3.59032C4.07318 3.57821 3.15032 3.71343 2.26594 3.99094C1.39094 4.29626 0.99875 4.71376 0.99875 4.99094C0.99875 5.28094 1.42031 5.73688 2.34594 6.05344C3.20626 6.31157 4.10206 6.43171 5 6.40938C5.88013 6.42512 6.75748 6.30603 7.60156 6.05626C8.5625 5.73782 9 5.28126 9 4.99188C8.98418 4.89259 8.94797 4.79766 8.89365 4.71306C8.83932 4.62846 8.76807 4.55602 8.68438 4.50032C8.38803 4.27133 8.05364 4.09637 7.69656 3.98344C6.82434 3.70982 5.91404 3.57711 5 3.59032Z" fill="#00D8FF"/>
<path d="M3.225 8.88844C3.07922 8.89177 2.93516 8.8564 2.8075 8.78594C2.36 8.52782 2.205 7.78344 2.39281 6.79438C2.60013 5.84792 2.95891 4.94114 3.45531 4.10907C3.92127 3.27448 4.51765 2.51975 5.22187 1.87344C5.53233 1.59066 5.89034 1.365 6.27938 1.20688C6.42017 1.14111 6.57367 1.10703 6.72906 1.10703C6.88446 1.10703 7.03796 1.14111 7.17875 1.20688C7.64406 1.475 7.79813 2.29625 7.58094 3.35032C7.36749 4.2455 7.01801 5.10265 6.54469 5.89188C6.09516 6.71663 5.51756 7.4648 4.83344 8.10844C4.51181 8.40244 4.13854 8.63436 3.7325 8.7925C3.56999 8.85299 3.39838 8.88543 3.225 8.88844ZM3.77906 4.29469C3.30559 5.09148 2.96172 5.95843 2.76031 6.86313C2.5875 7.77407 2.75344 8.32188 2.99469 8.46125C3.24469 8.60594 3.85156 8.46875 4.58844 7.825C5.24161 7.20846 5.79293 6.49228 6.22188 5.70313C6.67529 4.9486 7.01053 4.12911 7.21594 3.27313C7.42031 2.28094 7.24375 1.67344 6.99313 1.52907C6.89918 1.49313 6.79881 1.47705 6.69834 1.48184C6.59787 1.48662 6.49948 1.51217 6.40938 1.55688C6.06304 1.69983 5.74463 1.90273 5.46875 2.15625C4.79598 2.77538 4.22631 3.4979 3.78125 4.29657L3.77906 4.29469Z" fill="#00D8FF"/>
<path d="M6.77409 8.89249C6.35065 8.89249 5.81284 8.63624 5.25284 8.15468C4.53636 7.50241 3.9299 6.73873 3.4569 5.89312C2.96662 5.07255 2.61067 4.17888 2.40252 3.24593C2.31246 2.83544 2.29575 2.41225 2.35315 1.99593C2.36664 1.84154 2.41375 1.69198 2.49116 1.55772C2.56857 1.42346 2.67442 1.30777 2.80127 1.21874C3.26596 0.949681 4.0544 1.22624 4.85909 1.94062C5.52802 2.57255 6.09608 3.30334 6.54346 4.10749C7.03348 4.90889 7.39316 5.783 7.60909 6.69718C7.70319 7.12271 7.7177 7.56199 7.6519 7.99281C7.6363 8.1517 7.5865 8.30534 7.50591 8.44316C7.42532 8.58098 7.31585 8.69973 7.18502 8.79124C7.05939 8.8607 6.9176 8.89564 6.77409 8.89249ZM3.78034 5.70499C4.23413 6.5131 4.81344 7.24398 5.49659 7.87031C6.1994 8.47499 6.7569 8.60499 6.99659 8.46406C7.24659 8.31874 7.43096 7.72562 7.24096 6.76593C7.03286 5.89308 6.68786 5.05869 6.21877 4.29374C5.79185 3.52409 5.24963 2.82432 4.61096 2.21874C3.85346 1.54624 3.23909 1.39593 2.98877 1.54093C2.9108 1.60437 2.8468 1.68327 2.80082 1.77265C2.75484 1.86204 2.72786 1.95998 2.72159 2.06031C2.67194 2.43158 2.68812 2.80871 2.7694 3.17437C2.96967 4.06654 3.31105 4.92104 3.78065 5.70562L3.78034 5.70499Z" fill="#00D8FF"/>
</svg>
