<svg width="10" height="10" viewBox="0 0 10 10" fill="none" xmlns="http://www.w3.org/2000/svg">
<path d="M2.6756 4.7675C3.42192 5.02953 4.20914 5.1558 4.99997 5.14031C5.79083 5.1557 6.57804 5.02933 7.32435 4.76719C7.90685 4.54 8.11341 4.2875 8.11341 4.14219V3.03125C7.9097 3.16753 7.69123 3.28033 7.46216 3.3675C6.6726 3.65017 5.8385 3.78801 4.99997 3.77438C4.16154 3.78753 3.32756 3.64992 2.53779 3.36813C2.30858 3.28101 2.09008 3.16798 1.88654 3.03125V4.14062C1.88654 4.28875 2.09372 4.54 2.6756 4.7675ZM2.6756 6.86281C2.93922 6.96337 3.21107 7.04085 3.4881 7.09438C3.98626 7.19054 4.49261 7.23795 4.99997 7.23594C5.50732 7.23806 6.01367 7.19075 6.51185 7.09469C6.78887 7.04116 7.06073 6.96368 7.32435 6.86313C7.90685 6.63594 8.11341 6.38344 8.11341 6.23813V5.17875C7.94508 5.28005 7.76814 5.36633 7.58466 5.43656C6.7552 5.73017 5.87972 5.87233 4.99997 5.85625C4.12013 5.87183 3.24465 5.72914 2.41529 5.435C2.23199 5.36433 2.0551 5.27808 1.88654 5.17719V6.2375C1.88654 6.38312 2.09372 6.63469 2.6756 6.86281ZM4.99997 9.375C6.71872 9.375 8.11341 8.83 8.11341 8.15813V7.27156C7.96027 7.36387 7.79984 7.44352 7.63372 7.50969L7.58466 7.52938C6.75535 7.82383 5.87987 7.96684 4.99997 7.95156C4.12002 7.96752 3.24442 7.8245 2.41529 7.52938L2.36622 7.50969C2.20011 7.44352 2.03968 7.36387 1.88654 7.27156V8.15813C1.88654 8.83 3.28122 9.375 4.99997 9.375Z" fill="#FFDA44"/>
<path d="M4.99997 3.05875C6.71948 3.05875 8.11341 2.51394 8.11341 1.84188C8.11341 1.16981 6.71948 0.625 4.99997 0.625C3.28047 0.625 1.88654 1.16981 1.88654 1.84188C1.88654 2.51394 3.28047 3.05875 4.99997 3.05875Z" fill="#FFDA44"/>
</svg>
