<svg width="10" height="10" viewBox="0 0 10 10" fill="none" xmlns="http://www.w3.org/2000/svg">
<path d="M5 1.99219C3.66667 1.99219 2.83333 2.65885 2.5 3.99219C3 3.32552 3.58333 3.07552 4.25 3.24219C4.63035 3.33727 4.90223 3.61324 5.20316 3.91867C5.6934 4.41629 6.26074 4.99219 7.5 4.99219C8.83333 4.99219 9.66667 4.32552 10 2.99219C9.5 3.65885 8.91667 3.90885 8.25 3.74219C7.86965 3.64711 7.59777 3.37113 7.29684 3.0657C6.8066 2.56809 6.23926 1.99219 5 1.99219ZM2.5 4.99219C1.16667 4.99219 0.333333 5.65885 0 6.99219C0.5 6.32552 1.08333 6.07552 1.75 6.24219C2.13035 6.33727 2.40223 6.61324 2.70316 6.91867C3.1934 7.41629 3.76074 7.99219 5 7.99219C6.33333 7.99219 7.16667 7.32552 7.5 5.99219C7 6.65885 6.41667 6.90885 5.75 6.74219C5.36965 6.64711 5.09777 6.37113 4.79684 6.0657C4.3066 5.56809 3.73926 4.99219 2.5 4.99219Z" fill="url(#paint0_linear_24_25)"/>
<defs>
<linearGradient id="paint0_linear_24_25" x1="-27.78" y1="193.992" x2="835.883" y2="691.965" gradientUnits="userSpaceOnUse">
<stop stop-color="#2298BD"/>
<stop offset="1" stop-color="#0ED7B5"/>
</linearGradient>
</defs>
</svg>
