<svg width="10" height="10" viewBox="0 0 10 10" fill="none" xmlns="http://www.w3.org/2000/svg">
<path d="M7.44595 2.57593C7.71214 2.6374 7.95399 2.77676 8.14064 2.97625C8.24327 3.0843 8.33265 3.20421 8.40689 3.33343C8.41033 3.3475 7.92751 3.67187 7.6347 3.85281C7.62408 3.86 7.58189 3.81406 7.53408 3.74343C7.48067 3.65141 7.40477 3.57446 7.31349 3.5198C7.22221 3.46514 7.11854 3.43456 7.0122 3.43093C6.67564 3.40781 6.45876 3.58406 6.46033 3.87875C6.45742 3.95114 6.47393 4.023 6.50814 4.08687C6.5822 4.24 6.7197 4.33187 7.15158 4.51906C7.94658 4.86125 8.28783 5.08687 8.49845 5.4075C8.61747 5.61009 8.69077 5.83625 8.71322 6.07015C8.73568 6.30404 8.70675 6.54002 8.62845 6.76156C8.5209 7.00458 8.3502 7.21436 8.13411 7.36906C7.91802 7.52377 7.66442 7.61775 7.3997 7.64125C7.11833 7.6732 6.8341 7.67026 6.55345 7.6325C6.1236 7.56189 5.72762 7.35558 5.42345 7.04375C5.30858 6.91427 5.21128 6.77022 5.13408 6.61531C5.1667 6.59146 5.20084 6.56975 5.23626 6.55031C5.28564 6.52218 5.47251 6.41468 5.64876 6.3125L5.96876 6.125L6.03564 6.2225C6.14846 6.38342 6.2918 6.5206 6.45751 6.62625C6.62502 6.71813 6.81476 6.76166 7.00557 6.75201C7.19638 6.74235 7.38076 6.67988 7.53814 6.57156C7.61932 6.49243 7.67007 6.38726 7.6815 6.27448C7.69292 6.16169 7.6643 6.04848 7.60064 5.95468C7.51439 5.83125 7.33814 5.7275 6.8372 5.51031C6.4444 5.37786 6.08663 5.15832 5.79064 4.86812C5.64978 4.70741 5.5457 4.5179 5.48564 4.31281C5.44123 4.07912 5.43469 3.83982 5.46626 3.60406C5.52499 3.33272 5.66575 3.08601 5.86946 2.89739C6.07317 2.70878 6.32996 2.58738 6.60501 2.54968C6.88506 2.51622 7.16854 2.52507 7.44595 2.57593ZM4.83876 3.03937L4.8422 3.49375H3.39533V7.6025H2.37501V3.49468H0.928138V3.04843C0.924298 2.89561 0.928471 2.74269 0.940638 2.59031C0.945951 2.58312 1.82564 2.57968 2.8922 2.58156L4.83314 2.58687L4.83876 3.03937Z" fill="#007ACC"/>
</svg>
