<svg width="10" height="10" viewBox="0 0 10 10" fill="none" xmlns="http://www.w3.org/2000/svg">
<g clip-path="url(#clip0_26_65)">
<mask id="mask0_26_65" style="mask-type:luminance" maskUnits="userSpaceOnUse" x="0" y="0" width="10" height="10">
<path d="M7.06358 9.94508C7.22047 10.0067 7.39938 10.0027 7.55774 9.92595L9.60856 8.93137C9.82405 8.82685 9.96109 8.607 9.96109 8.36586V1.62193C9.96109 1.38078 9.82405 1.16096 9.60856 1.05645L7.55774 0.0618315C7.34992 -0.0389536 7.10669 -0.0142675 6.92432 0.119377C6.89825 0.138469 6.87342 0.159785 6.85016 0.183276L2.92409 3.79329L1.21398 2.48496C1.05478 2.36317 0.832113 2.37315 0.684261 2.5087L0.135773 3.01156C-0.0450791 3.17737 -0.0452865 3.46412 0.135325 3.6302L1.61839 4.99387L0.135325 6.35756C-0.0452865 6.52365 -0.0450791 6.8104 0.135773 6.97621L0.684261 7.47905C0.832113 7.61462 1.05478 7.62458 1.21398 7.50281L2.92409 6.19446L6.85016 9.80449C6.91226 9.86712 6.98517 9.9143 7.06358 9.94508ZM7.47233 2.7148L4.49335 4.99387L7.47233 7.27296V2.7148Z" fill="white"/>
</mask>
<g mask="url(#mask0_26_65)">
<path d="M9.61464 1.05801L7.56223 0.0620197C7.32468 -0.0532655 7.04075 -0.00463563 6.85429 0.183276L0.135407 6.35757C-0.0453141 6.52365 -0.0451063 6.81041 0.135855 6.97622L0.684675 7.47906C0.832621 7.61463 1.05543 7.62459 1.21471 7.50282L9.30581 1.31639C9.57725 1.10885 9.96713 1.30398 9.96713 1.64737V1.62336C9.96713 1.38231 9.83013 1.16258 9.61464 1.05801Z" fill="#0065A9"/>
</g>
<mask id="mask1_26_65" style="mask-type:luminance" maskUnits="userSpaceOnUse" x="0" y="0" width="10" height="10">
<path d="M7.06358 9.94508C7.22047 10.0067 7.39938 10.0027 7.55774 9.92595L9.60856 8.93137C9.82405 8.82685 9.96109 8.607 9.96109 8.36586V1.62193C9.96109 1.38078 9.82405 1.16096 9.60856 1.05645L7.55774 0.0618315C7.34992 -0.0389536 7.10669 -0.0142675 6.92432 0.119377C6.89825 0.138469 6.87342 0.159785 6.85016 0.183276L2.92409 3.79329L1.21398 2.48496C1.05478 2.36317 0.832113 2.37315 0.684261 2.5087L0.135773 3.01156C-0.0450791 3.17737 -0.0452865 3.46412 0.135325 3.6302L1.61839 4.99387L0.135325 6.35756C-0.0452865 6.52365 -0.0450791 6.8104 0.135773 6.97621L0.684261 7.47905C0.832113 7.61462 1.05478 7.62458 1.21398 7.50281L2.92409 6.19446L6.85016 9.80449C6.91226 9.86712 6.98517 9.9143 7.06358 9.94508ZM7.47233 2.7148L4.49335 4.99387L7.47233 7.27296V2.7148Z" fill="white"/>
</mask>
<g mask="url(#mask1_26_65)">
<path d="M9.61464 8.92976L7.56223 9.92575C7.32468 10.041 7.04075 9.99238 6.85429 9.80449L0.135407 3.63019C-0.0453141 3.46412 -0.0451063 3.17735 0.135855 3.01155L0.684675 2.50869C0.832621 2.37314 1.05543 2.36316 1.21471 2.48495L9.30581 8.67136C9.57725 8.87889 9.96713 8.68379 9.96713 8.34037V8.36441C9.96713 8.60543 9.83013 8.82517 9.61464 8.92976Z" fill="#007ACC"/>
</g>
<mask id="mask2_26_65" style="mask-type:luminance" maskUnits="userSpaceOnUse" x="0" y="0" width="10" height="10">
<path d="M7.06358 9.94508C7.22047 10.0067 7.39938 10.0027 7.55774 9.92595L9.60856 8.93137C9.82405 8.82685 9.96109 8.607 9.96109 8.36586V1.62193C9.96109 1.38078 9.82405 1.16096 9.60856 1.05645L7.55774 0.0618315C7.34992 -0.0389536 7.10669 -0.0142675 6.92432 0.119377C6.89825 0.138469 6.87342 0.159785 6.85016 0.183276L2.92409 3.79329L1.21398 2.48496C1.05478 2.36317 0.832113 2.37315 0.684261 2.5087L0.135773 3.01156C-0.0450791 3.17737 -0.0452865 3.46412 0.135325 3.6302L1.61839 4.99387L0.135325 6.35756C-0.0452865 6.52365 -0.0450791 6.8104 0.135773 6.97621L0.684261 7.47905C0.832113 7.61462 1.05478 7.62458 1.21398 7.50281L2.92409 6.19446L6.85016 9.80449C6.91226 9.86712 6.98517 9.9143 7.06358 9.94508ZM7.47233 2.7148L4.49335 4.99387L7.47233 7.27296V2.7148Z" fill="white"/>
</mask>
<g mask="url(#mask2_26_65)">
<path d="M7.55579 9.92656C7.31817 10.0417 7.03424 9.99307 6.84778 9.80514C7.07751 10.0367 7.47035 9.87268 7.47035 9.54521V0.443822C7.47035 0.11636 7.07751 -0.047635 6.84778 0.183917C7.03424 -0.0040124 7.31817 -0.0527109 7.55579 0.0624725L9.60786 1.05709C9.8235 1.16161 9.96062 1.38142 9.96062 1.62257V8.36651C9.96062 8.60766 9.8235 8.82747 9.60786 8.93198L7.55579 9.92656Z" fill="#1F9CF0"/>
</g>
<mask id="mask3_26_65" style="mask-type:luminance" maskUnits="userSpaceOnUse" x="0" y="0" width="10" height="10">
<path d="M7.06358 9.94508C7.22047 10.0067 7.39938 10.0027 7.55774 9.92595L9.60856 8.93137C9.82405 8.82685 9.96109 8.607 9.96109 8.36586V1.62193C9.96109 1.38078 9.82405 1.16096 9.60856 1.05645L7.55774 0.0618315C7.34992 -0.0389536 7.10669 -0.0142675 6.92432 0.119377C6.89825 0.138469 6.87342 0.159785 6.85016 0.183276L2.92409 3.79329L1.21398 2.48496C1.05478 2.36317 0.832113 2.37315 0.684261 2.5087L0.135773 3.01156C-0.0450791 3.17737 -0.0452865 3.46412 0.135325 3.6302L1.61839 4.99387L0.135325 6.35756C-0.0452865 6.52365 -0.0450791 6.8104 0.135773 6.97621L0.684261 7.47905C0.832113 7.61462 1.05478 7.62458 1.21398 7.50281L2.92409 6.19446L6.85016 9.80449C6.91226 9.86712 6.98517 9.9143 7.06358 9.94508ZM7.47233 2.7148L4.49335 4.99387L7.47233 7.27296V2.7148Z" fill="white"/>
</mask>
<g mask="url(#mask3_26_65)">
<path d="M7.06359 9.94509C7.22048 10.0067 7.39939 10.0027 7.55771 9.92595L9.60853 8.93133C9.82406 8.82682 9.9611 8.60701 9.9611 8.36586V1.62193C9.9611 1.38078 9.82406 1.16096 9.60857 1.05645L7.55771 0.0618317C7.34993 -0.0389537 7.1067 -0.0142676 6.92429 0.119377C6.89826 0.138469 6.87343 0.159785 6.85013 0.183275L2.92408 3.79329L1.21397 2.48496C1.05478 2.36317 0.832111 2.37315 0.684259 2.5087L0.135773 3.01156C-0.0450791 3.17736 -0.0452865 3.46413 0.135325 3.6302L1.61839 4.99388L0.135325 6.35757C-0.0452865 6.52365 -0.0450791 6.81041 0.135773 6.97621L0.684259 7.47905C0.832111 7.61463 1.05478 7.62459 1.21397 7.50282L2.92408 6.19446L6.85013 9.8045C6.91223 9.86713 6.98519 9.9143 7.06359 9.94509ZM7.47234 2.71479L4.49336 4.99388L7.47234 7.27297V2.71479Z" fill="url(#paint0_linear_26_65)" fill-opacity="0.25"/>
</g>
</g>
<defs>
<linearGradient id="paint0_linear_26_65" x1="498.055" y1="-3.91166e-06" x2="498.055" y2="998.776" gradientUnits="userSpaceOnUse">
<stop stop-color="white"/>
<stop offset="1" stop-color="white" stop-opacity="0"/>
</linearGradient>
<clipPath id="clip0_26_65">
<rect width="10" height="10" fill="white"/>
</clipPath>
</defs>
</svg>
